{
	"asset":{
		"generator":"Khronos glTF Blender I/O v4.4.55",
		"version":"2.0"
	},
	"scene":0,
	"scenes":[
		{
			"name":"Scene",
			"nodes":[
				0
			]
		}
	],
	"nodes":[
		{
			"mesh":0,
			"name":"Torus",
			"translation":[
				3,
				0,
				0
			]
		}
	],
	"materials":[
		{
			"doubleSided":true,
			"name":"Material.003",
			"pbrMetallicRoughness":{
				"baseColorFactor":[
					1,
					0.800000011920929,
					0,
					1
				],
				"metallicFactor":0.30000001192092896
			}
		}
	],
	"meshes":[
		{
			"name":"Torus",
			"primitives":[
				{
					"attributes":{
						"POSITION":0,
						"NORMAL":1,
						"TEXCOORD_0":2
					},
					"indices":3,
					"material":0
				}
			]
		}
	],
	"accessors":[
		{
			"bufferView":0,
			"componentType":5126,
			"count":1225,
			"max":[
				0.44054245948791504,
				0.12562105059623718,
				0.44054219126701355
			],
			"min":[
				-0.44054192304611206,
				-0.12562105059623718,
				-0.44054219126701355
			],
			"type":"VEC3"
		},
		{
			"bufferView":1,
			"componentType":5126,
			"count":1225,
			"type":"VEC3"
		},
		{
			"bufferView":2,
			"componentType":5126,
			"count":1225,
			"type":"VEC2"
		},
		{
			"bufferView":3,
			"componentType":5123,
			"count":6912,
			"type":"SCALAR"
		}
	],
	"bufferViews":[
		{
			"buffer":0,
			"byteLength":14700,
			"byteOffset":0,
			"target":34962
		},
		{
			"buffer":0,
			"byteLength":14700,
			"byteOffset":14700,
			"target":34962
		},
		{
			"buffer":0,
			"byteLength":9800,
			"byteOffset":29400,
			"target":34962
		},
		{
			"buffer":0,
			"byteLength":13824,
			"byteOffset":39200,
			"target":34963
		}
	],
	"buffers":[
		{
			"byteLength":53024,
			"uri":"torus.bin"
		}
	]
}
