{
	"asset":{
		"generator":"Khronos glTF Blender I/O v4.4.55",
		"version":"2.0"
	},
	"extensionsUsed":[
		"KHR_materials_transmission"
	],
	"scene":0,
	"scenes":[
		{
			"name":"Scene",
			"nodes":[
				0
			]
		}
	],
	"nodes":[
		{
			"mesh":0,
			"name":"Diamond",
			"translation":[
				5,
				0,
				0
			]
		}
	],
	"materials":[
		{
			"doubleSided":true,
			"extensions":{
				"KHR_materials_transmission":{
					"transmissionFactor":0.7086614370346069
				}
			},
			"name":"Material.005",
			"pbrMetallicRoughness":{
				"baseColorFactor":[
					0,
					0.800000011920929,
					0.800000011920929,
					1
				],
				"metallicFactor":0,
				"roughnessFactor":0
			}
		}
	],
	"meshes":[
		{
			"name":"Diamond",
			"primitives":[
				{
					"attributes":{
						"POSITION":0,
						"NORMAL":1
					},
					"indices":2,
					"material":0
				}
			]
		}
	],
	"accessors":[
		{
			"bufferView":0,
			"componentType":5126,
			"count":257,
			"max":[
				0.4124133884906769,
				0.17500001192092896,
				0.4124133884906769
			],
			"min":[
				-0.4124133884906769,
				-0.4000000059604645,
				-0.4124133884906769
			],
			"type":"VEC3"
		},
		{
			"bufferView":1,
			"componentType":5126,
			"count":257,
			"type":"VEC3"
		},
		{
			"bufferView":2,
			"componentType":5123,
			"count":384,
			"type":"SCALAR"
		}
	],
	"bufferViews":[
		{
			"buffer":0,
			"byteLength":3084,
			"byteOffset":0,
			"target":34962
		},
		{
			"buffer":0,
			"byteLength":3084,
			"byteOffset":3084,
			"target":34962
		},
		{
			"buffer":0,
			"byteLength":768,
			"byteOffset":6168,
			"target":34963
		}
	],
	"buffers":[
		{
			"byteLength":6936,
			"uri":"diamond.bin"
		}
	]
}
