{
	"asset":{
		"generator":"Khronos glTF Blender I/O v4.4.55",
		"version":"2.0"
	},
	"scene":0,
	"scenes":[
		{
			"name":"Scene",
			"nodes":[
				0
			]
		}
	],
	"nodes":[
		{
			"mesh":0,
			"name":"Teapot"
		}
	],
	"materials":[
		{
			"doubleSided":true,
			"name":"Material.008",
			"pbrMetallicRoughness":{
				"baseColorFactor":[
					0.800000011920929,
					0.800000011920929,
					0.800000011920929,
					1
				],
				"roughnessFactor":0
			}
		}
	],
	"meshes":[
		{
			"name":"Teapot",
			"primitives":[
				{
					"attributes":{
						"POSITION":0,
						"NORMAL":1
					},
					"indices":2,
					"material":0
				}
			]
		}
	],
	"accessors":[
		{
			"bufferView":0,
			"componentType":5126,
			"count":591,
			"max":[
				0.13177907466888428,
				0.07051916420459747,
				1
			],
			"min":[
				-0.13177907466888428,
				-0.08482152223587036,
				-0.2145545929670334
			],
			"type":"VEC3"
		},
		{
			"bufferView":1,
			"componentType":5126,
			"count":591,
			"type":"VEC3"
		},
		{
			"bufferView":2,
			"componentType":5123,
			"count":3435,
			"type":"SCALAR"
		}
	],
	"bufferViews":[
		{
			"buffer":0,
			"byteLength":7092,
			"byteOffset":0,
			"target":34962
		},
		{
			"buffer":0,
			"byteLength":7092,
			"byteOffset":7092,
			"target":34962
		},
		{
			"buffer":0,
			"byteLength":6870,
			"byteOffset":14184,
			"target":34963
		}
	],
	"buffers":[
		{
			"byteLength":21056,
			"uri":"spoon.bin"
		}
	]
}
