{
	"asset":{
		"generator":"Khronos glTF Blender I/O v4.4.55",
		"version":"2.0"
	},
	"scene":0,
	"scenes":[
		{
			"name":"Scene",
			"nodes":[
				0
			]
		}
	],
	"nodes":[
		{
			"mesh":0,
			"name":"Teapot.001",
			"scale":[
				0.13431847095489502,
				0.13431847095489502,
				0.13431847095489502
			],
			"translation":[
				0.005648912861943245,
				0.03332094848155975,
				0
			]
		}
	],
	"materials":[
		{
			"doubleSided":true,
			"name":"Material.012",
			"pbrMetallicRoughness":{
				"baseColorFactor":[
					0.2982518672943115,
					0.2982518672943115,
					0.2982518672943115,
					1
				],
				"metallicFactor":0
			}
		}
	],
	"meshes":[
		{
			"name":"Teapot.001",
			"primitives":[
				{
					"attributes":{
						"POSITION":0,
						"NORMAL":1
					},
					"indices":2,
					"material":0
				}
			]
		}
	],
	"accessors":[
		{
			"bufferView":0,
			"componentType":5126,
			"count":2081,
			"max":[
				3.3910982608795166,
				1.4142340421676636,
				2
			],
			"min":[
				-3.042056083679199,
				-1.735766053199768,
				-2
			],
			"type":"VEC3"
		},
		{
			"bufferView":1,
			"componentType":5126,
			"count":2081,
			"type":"VEC3"
		},
		{
			"bufferView":2,
			"componentType":5123,
			"count":12096,
			"type":"SCALAR"
		}
	],
	"bufferViews":[
		{
			"buffer":0,
			"byteLength":24972,
			"byteOffset":0,
			"target":34962
		},
		{
			"buffer":0,
			"byteLength":24972,
			"byteOffset":24972,
			"target":34962
		},
		{
			"buffer":0,
			"byteLength":24192,
			"byteOffset":49944,
			"target":34963
		}
	],
	"buffers":[
		{
			"byteLength":74136,
			"uri":"teapot.bin"
		}
	]
}
